<svg xmlns="http://www.w3.org/2000/svg" xmlns:svg="http://www.w3.org/2000/svg" id="svg2" width="616" height="452" version="1.1" viewBox="0 0 462 339"><metadata id="metadata20"/><path id="path6" fill="#41cd52" d="M 63.50 0.00 L 462.00 0.00 L 462.00 274.79 C 440.60 296.26 419.13 317.66 397.61 339.00 L 0.00 339.00 L 0.00 63.39 C 21.08 42.18 42.34 21.13 63.50 0.00 Z"/><path id="path12" fill="#41cd52" d="M 160.51 87.70 C 170.80 86.36 181.60 86.72 191.34 90.61 C 199.23 93.73 205.93 99.84 209.47 107.58 C 214.90 119.31 216.98 132.26 218.03 145.05 C 219.17 162.07 219.01 179.25 216.66 196.17 C 215.01 206.24 212.66 216.85 205.84 224.79 C 198.92 232.76 188.25 236.18 178.01 236.98 C 167.21 237.77 155.82 236.98 146.07 231.87 C 140.38 228.84 135.55 224.09 132.73 218.27 C 129.31 211.30 127.43 203.69 126.11 196.07 C 122.13 171.91 121.17 146.91 126.61 122.89 C 128.85 113.83 132.11 104.53 138.73 97.70 C 144.49 91.85 152.51 88.83 160.51 87.70 Z"/><text id="text823" x="395.018" y="267.524" style="font-style:italic;font-variant:normal;font-weight:400;font-stretch:normal;font-size:27.80962181px;line-height:125%;font-family:Sansation;-inkscape-font-specification:'Sansation, Italic';font-variant-ligatures:normal;font-variant-caps:normal;font-variant-numeric:normal;font-feature-settings:normal;text-align:end;letter-spacing:0;word-spacing:0;writing-mode:lr-tb;text-anchor:end;fill:#000;fill-opacity:1;stroke:none;stroke-width:3.56716514px;stroke-linecap:butt;stroke-linejoin:miter;stroke-opacity:1" xml:space="preserve"><tspan style="font-style:normal;font-variant:normal;font-weight:600;font-stretch:normal;font-size:342.44790649px;font-family:'Titillium Web';-inkscape-font-specification:'Titillium Web Semi-Bold';font-variant-ligatures:normal;font-variant-caps:normal;font-variant-numeric:normal;font-feature-settings:normal;text-align:end;writing-mode:lr-tb;text-anchor:end;fill:#fff;fill-opacity:1;stroke-width:3.56716514px" id="tspan821" x="395.018" y="267.524">QJ</tspan></text></svg>